name rise36.2859peak64.2979fall75.1499.mot
datacolumns 19
datarows 32
range 16.33660900000000 16.38829300000000
endheader
time	ground_force1_vx	ground_force1_vy	ground_force1_vz	ground_force1_px	ground_force1_py	ground_force1_pz	ground_force2_vx	ground_force2_vy	ground_force2_vz	ground_force2_px	ground_force2_py	ground_force2_pz	ground_torque1_x	ground_torque1_y	ground_torque1_z	ground_torque2_x	ground_torque2_y	ground_torque2_z	
16.33660900000000	-41.89548500000000	796.06119600000000	64.41171500000000	0.22181700000000	0.00000000000000	0.12090100000000	-4.19424400000000	16.37499500000000	3.93473400000000	0.00000000000000	0.00000000000000	0.00000000000000	0.00000000000000	37.77294500000000	0.00000000000000	0.00000000000000	1.81437300000000	0.00000000000000	
16.33829500000000	-41.79404100000000	793.47827900000004	64.21928200000001	0.22114900000000	0.00000000000000	0.12085500000000	-5.26054600000000	21.87059100000000	5.05756600000000	0.00000000000000	0.00000000000000	0.00000000000000	0.00000000000000	37.55314900000000	0.00000000000000	0.00000000000000	2.34014300000000	0.00000000000000	
16.33993700000000	-41.70513900000000	790.78460199999995	64.00564100000000	0.22047800000000	0.00000000000000	0.12080600000000	-6.32935100000000	27.86536000000000	6.22636900000000	0.41826900000000	0.00000000000000	-0.06968500000000	0.00000000000000	37.32860200000000	0.00000000000000	0.00000000000000	5.05351000000000	0.00000000000000	
16.34160400000000	-41.62957300000000	787.98090999999999	63.77058900000000	0.21980600000000	0.00000000000000	0.12075200000000	-7.35775700000000	34.23851400000000	7.40445900000000	0.42100500000000	0.00000000000000	-0.07068600000000	0.00000000000000	37.09950700000000	0.00000000000000	0.00000000000000	6.04546700000000	0.00000000000000	
16.34329100000000	-41.56810400000000	785.06798300000003	63.51395600000000	0.21913200000000	0.00000000000000	0.12069500000000	-8.30416100000000	40.86214800000000	8.55510400000000	0.42375300000000	0.00000000000000	-0.07158900000000	0.00000000000000	36.86606600000000	0.00000000000000	0.00000000000000	7.02822800000000	0.00000000000000	
16.34493300000000	-41.52145400000000	782.04662399999995	63.23560800000000	0.21845800000000	0.00000000000000	0.12063400000000	-9.13124900000000	47.61184400000000	9.64424700000000	0.42649700000000	0.00000000000000	-0.07240800000000	0.00000000000000	36.62848500000000	0.00000000000000	0.00000000000000	7.97453800000000	0.00000000000000	
16.34660700000000	-41.49030800000000	778.91764799999999	62.93544700000000	0.21778300000000	0.00000000000000	0.12056800000000	-9.80842300000000	54.37608500000000	10.64278600000000	0.42922200000000	0.00000000000000	-0.07315800000000	0.00000000000000	36.38697000000000	0.00000000000000	0.00000000000000	8.86062500000000	0.00000000000000	
16.34827900000000	-41.47530700000000	775.68187999999998	62.61341000000000	0.21710800000000	0.00000000000000	0.12049800000000	-10.31340000000000	61.06350100000000	11.52818800000000	0.43191600000000	0.00000000000000	-0.07384800000000	0.00000000000000	36.14172700000000	0.00000000000000	0.00000000000000	9.66759000000000	0.00000000000000	
16.34994100000000	-41.47704500000000	772.34013800000002	62.26947200000000	0.21643300000000	0.00000000000000	0.12042400000000	-10.63292300000000	67.60742000000000	12.28534800000000	0.43457200000000	0.00000000000000	-0.07448800000000	0.00000000000000	35.89296200000000	0.00000000000000	0.00000000000000	10.38221200000000	0.00000000000000	
16.35160100000000	-41.49606700000000	768.89323000000002	61.90364100000000	0.21575900000000	0.00000000000000	0.12034500000000	-10.76263800000000	73.96769300000000	12.90671100000000	0.43718200000000	0.00000000000000	-0.07508300000000	0.00000000000000	35.64087800000000	0.00000000000000	0.00000000000000	10.99716300000000	0.00000000000000	
16.35327000000000	-41.53286500000000	765.34194100000002	61.51596100000000	0.21508500000000	0.00000000000000	0.12026100000000	-10.70625300000000	80.13002600000000	13.39174500000000	0.43974000000000	0.00000000000000	-0.07564100000000	0.00000000000000	35.38567600000000	0.00000000000000	0.00000000000000	11.51071800000000	0.00000000000000	
16.35493600000000	-41.58787300000000	761.68702900000005	61.10651000000000	0.21441300000000	0.00000000000000	0.12017300000000	-10.47418300000000	86.10330700000000	13.74594300000000	0.44224200000000	0.00000000000000	-0.07616600000000	0.00000000000000	35.12755200000000	0.00000000000000	0.00000000000000	11.92604300000000	0.00000000000000	
16.35660500000000	-41.66146700000000	757.92921699999999	60.67540300000000	0.21374100000000	0.00000000000000	0.12008000000000	-10.08188000000000	91.91547199999999	13.97948900000000	0.44468400000000	0.00000000000000	-0.07666200000000	0.00000000000000	34.86670000000000	0.00000000000000	0.00000000000000	12.25020400000000	0.00000000000000	
16.35828300000000	-41.75395600000000	754.06917999999996	60.22278500000000	0.21307100000000	0.00000000000000	0.11998100000000	-9.54802700000000	97.60852900000000	14.10577700000000	0.44706400000000	0.00000000000000	-0.07713400000000	0.00000000000000	34.60330600000000	0.00000000000000	0.00000000000000	12.49302100000000	0.00000000000000	
16.35994200000000	-41.86558600000000	750.10754699999995	59.74883800000000	0.21240300000000	0.00000000000000	0.11987800000000	-8.89279100000000	103.23328300000000	14.13992200000000	0.44937900000000	0.00000000000000	-0.07758300000000	0.00000000000000	34.33755100000000	0.00000000000000	0.00000000000000	12.66589100000000	0.00000000000000	
16.36160700000000	-41.99652900000000	746.04488800000001	59.25377300000000	0.21173600000000	0.00000000000000	0.11977000000000	-8.13624000000000	108.84424900000000	14.09738400000000	0.45162900000000	0.00000000000000	-0.07801200000000	0.00000000000000	34.06960700000000	0.00000000000000	0.00000000000000	12.78068200000000	0.00000000000000	
16.36329100000000	-42.14688400000000	741.88171100000000	58.73783600000000	0.21107000000000	0.00000000000000	0.11965600000000	-7.29705000000000	114.49512300000001	13.99281000000000	0.45381100000000	0.00000000000000	-0.07842400000000	0.00000000000000	33.79964100000000	0.00000000000000	0.00000000000000	12.84876900000000	0.00000000000000	
16.36495100000000	-42.31667500000000	737.61845500000004	58.20130000000000	0.21040700000000	0.00000000000000	0.11953800000000	-6.39152900000000	120.23506600000000	13.83912400000000	0.45592600000000	0.00000000000000	-0.07882100000000	0.00000000000000	33.52780700000000	0.00000000000000	0.00000000000000	12.88027600000000	0.00000000000000	
16.36660200000000	-42.50584300000000	733.25548800000001	57.64447200000000	0.20974500000000	0.00000000000000	0.11941400000000	-5.43299200000000	126.10596300000000	13.64691100000000	0.45797200000000	0.00000000000000	-0.07920400000000	0.00000000000000	33.25425000000000	0.00000000000000	0.00000000000000	12.88353800000000	0.00000000000000	
16.36829600000000	-42.71424800000000	728.79310199999998	57.06768700000000	0.20908500000000	0.00000000000000	0.11928500000000	-4.43147500000000	132.14066299999999	13.42409100000000	0.45995100000000	0.00000000000000	-0.07957500000000	0.00000000000000	32.97910600000000	0.00000000000000	0.00000000000000	12.86479100000000	0.00000000000000	
16.36993700000000	-42.94166200000000	724.23150699999997	56.47130500000000	0.20842700000000	0.00000000000000	0.11915100000000	-3.39373400000000	138.36218900000000	13.17583800000000	0.46186100000000	0.00000000000000	-0.07993400000000	0.00000000000000	32.70249800000000	0.00000000000000	0.00000000000000	12.82807700000000	0.00000000000000	
16.37160700000000	-43.18777000000000	719.57083299999999	55.85571800000000	0.20777100000000	0.00000000000000	0.11901200000000	-2.32349700000000	144.78377699999999	12.90472500000000	0.46370400000000	0.00000000000000	-0.08028300000000	0.00000000000000	32.42453500000000	0.00000000000000	0.00000000000000	12.77532900000000	0.00000000000000	
16.37327200000000	-43.45216600000000	714.81112399999995	55.22134200000000	0.20711700000000	0.00000000000000	0.11886700000000	-1.22189000000000	151.40960300000000	12.61104000000000	0.46548000000000	0.00000000000000	-0.08062300000000	0.00000000000000	32.14531600000000	0.00000000000000	0.00000000000000	12.70659900000000	0.00000000000000	
16.37494100000000	-43.73435100000000	709.95234200000004	54.56861700000000	0.20646500000000	0.00000000000000	0.11871700000000	-0.08797900000000	158.23601099999999	12.29320500000000	0.46718900000000	0.00000000000000	-0.08095500000000	0.00000000000000	31.86492400000000	0.00000000000000	0.00000000000000	12.62038900000000	0.00000000000000	
16.37660500000000	-44.03373200000000	704.99436000000003	53.89801100000000	0.20581500000000	0.00000000000000	0.11856300000000	1.08063500000000	165.25305599999999	11.94826600000000	0.46883200000000	0.00000000000000	-0.08127800000000	0.00000000000000	31.58343000000000	0.00000000000000	0.00000000000000	12.51403600000000	0.00000000000000	
16.37828000000000	-44.34962000000000	699.93696999999997	53.21001100000000	0.20516700000000	0.00000000000000	0.11840300000000	2.28722100000000	172.44619100000000	11.57239100000000	0.47041100000000	0.00000000000000	-0.08159400000000	0.00000000000000	31.30088900000000	0.00000000000000	0.00000000000000	12.38412400000000	0.00000000000000	
16.37993900000000	-44.68122900000000	694.77988100000005	52.50513100000000	0.20452100000000	0.00000000000000	0.11823800000000	3.53536800000000	179.79794899999999	11.16134800000000	0.47192600000000	0.00000000000000	-0.08190400000000	0.00000000000000	31.01734200000000	0.00000000000000	0.00000000000000	12.22686800000000	0.00000000000000	
16.38163600000000	-45.02767700000000	689.52272600000003	51.78390200000000	0.20387700000000	0.00000000000000	0.11806800000000	4.82851200000000	187.28948900000000	10.71091900000000	0.47337800000000	0.00000000000000	-0.08220700000000	0.00000000000000	30.73281300000000	0.00000000000000	0.00000000000000	12.03847400000000	0.00000000000000	
16.38329400000000	-45.38798300000000	684.16506300000003	51.04687800000000	0.20323400000000	0.00000000000000	0.11789300000000	6.16956000000000	194.90192300000001	10.21725200000000	0.47476800000000	0.00000000000000	-0.08250300000000	0.00000000000000	30.44731400000000	0.00000000000000	0.00000000000000	11.81542200000000	0.00000000000000	
16.38494100000000	-45.76107100000000	678.70638299999996	50.29463200000000	0.20259400000000	0.00000000000000	0.11771400000000	7.56062500000000	202.61737500000001	9.67710900000000	0.47609800000000	0.00000000000000	-0.08279400000000	0.00000000000000	30.16083900000000	0.00000000000000	0.00000000000000	11.55469200000000	0.00000000000000	
16.38660100000000	-46.14576600000000	673.14611700000000	49.52775600000000	0.20195600000000	0.00000000000000	0.11752900000000	9.00285400000000	210.41973500000000	9.08804200000000	0.47736900000000	0.00000000000000	-0.08308000000000	0.00000000000000	29.87336800000000	0.00000000000000	0.00000000000000	11.25391700000000	0.00000000000000	
16.38829300000000	-46.54080100000000	667.48364600000002	48.74686000000000	0.20132000000000	0.00000000000000	0.11734000000000	10.49637100000000	218.29511900000000	8.44847900000000	0.47858200000000	0.00000000000000	-0.08336000000000	0.00000000000000	29.58486600000000	0.00000000000000	0.00000000000000	10.91145700000000	0.00000000000000	
